<svg width="1769" height="434" viewBox="0 0 1769 434" fill="none" xmlns="http://www.w3.org/2000/svg">
<path d="M1176.83 302.65L1176.12 115.91C1176.15 100.58 1173.26 13.7286 1182.41 3.91556C1196.67 -2.59144 1218.01 -0.0294361 1232.82 4.65756C1233.61 56.4856 1234.4 111.68 1232.81 163.38C1260.49 144.54 1267.96 121.4 1322.99 117.67C1344.96 116.19 1361.9 121.52 1378.59 129.17C1431.84 155.05 1451.31 208.59 1457.11 245.94C1459.88 263.75 1460.62 298.54 1452.11 314.82C1445.93 365.18 1363.75 484.1 1249.43 410.7C1241.58 405.66 1234.25 400 1227.17 394.6C1224.68 408.74 1227.51 428.58 1190.23 426.74C1186.69 426.57 1180.91 425.13 1179.96 422.89C1173.2 399.52 1175.09 354.92 1176.59 333.03C1175.71 323.29 1176.49 312.48 1176.83 302.65ZM1232.14 302.72C1241.29 327.66 1259.71 394.88 1335.33 375.49C1357.86 369.72 1377.68 348 1384.25 334.54C1407 287.99 1409.5 230.94 1370.98 186.7C1337.03 147.95 1279.26 160.78 1253.07 193.87C1241.01 209.11 1238.38 220.78 1232.3 236.84C1228.18 254.06 1227.95 267.88 1229.81 285.12C1230.31 289.76 1232.16 298.55 1232.14 302.72Z" fill="#656769"/>
<path d="M1176.83 302.649C1181.3 291.209 1176.43 250.279 1179.95 232.879L1180.13 234.299C1182.63 255.819 1175.8 335.449 1187.38 349.679C1211.44 348.979 1204.39 358.559 1227.47 356.749L1231.53 357.099C1237.57 359.589 1260.06 374.159 1262.36 376.679C1264.85 378.899 1274.48 385.589 1277.92 386.549C1364.98 410.889 1376.13 355.189 1413.4 327.909L1420.19 326.469C1423.98 328.189 1422.53 327.259 1424.81 329.109C1433.02 328.999 1433.55 328.629 1441.06 326.409C1442.59 319.169 1446.02 311.819 1448.96 304.689L1451.23 305.399L1452.11 314.819C1445.93 365.179 1363.75 484.099 1249.43 410.699C1241.58 405.659 1234.25 399.999 1227.17 394.599C1224.68 408.739 1227.51 428.579 1190.23 426.739C1186.69 426.569 1180.91 425.129 1179.96 422.889C1173.2 399.519 1175.09 354.919 1176.59 333.029C1175.71 323.289 1176.49 312.479 1176.83 302.649Z" fill="#959698"/>
<path d="M1176.83 302.649C1181.3 291.209 1176.43 250.279 1179.95 232.879L1180.12 234.299C1182.62 255.819 1175.79 335.449 1187.37 349.679C1211.43 348.979 1204.39 358.559 1227.47 356.749L1231.53 357.099C1237.57 359.589 1260.06 374.159 1262.36 376.679C1264.85 378.899 1274.47 385.589 1277.91 386.549C1364.97 410.889 1376.12 355.189 1413.39 327.909L1420.18 326.469C1423.97 328.189 1422.53 327.259 1424.81 329.109C1433.02 328.999 1433.55 328.629 1441.06 326.409C1438.55 331.609 1433.21 343.959 1429.13 348.059L1426.72 349.859C1398.06 371.429 1380.63 395.819 1321.67 401.979C1293.98 404.869 1275.78 397.219 1250.82 391.069C1243.94 385.249 1238.66 380.809 1232.84 374.609C1230.7 383.459 1224.14 381.659 1221.07 387.669C1217.48 394.699 1214.53 404.629 1212.17 411.909L1184.37 412.589C1185.16 393.639 1181.43 378.519 1178.48 359.889C1177.08 350.999 1178.5 342.579 1176.59 333.029C1175.71 323.289 1176.49 312.479 1176.83 302.649Z" fill="url(#paint0_linear_1508_859)"/>
<path d="M1424.81 329.108C1433.02 328.998 1433.55 328.628 1441.06 326.408C1438.55 331.608 1433.22 343.958 1429.14 348.058L1426.72 349.858C1398.06 371.428 1380.64 395.818 1321.68 401.978C1293.99 404.868 1275.78 397.218 1250.82 391.068C1243.94 385.248 1238.66 380.808 1232.84 374.608L1233.42 373.608C1240.09 377.688 1248.02 385.288 1253.56 390.158C1265.1 392.218 1298.62 402.488 1304.71 401.688C1325.76 398.938 1364.93 390.628 1377.7 380.708C1388.07 372.658 1435.85 337.488 1435.36 331.258C1431.67 329.798 1429.72 330.408 1424.08 330.448L1424.81 329.108Z" fill="#47494B"/>
<path d="M1413.4 327.909L1420.19 326.469C1423.98 328.189 1422.53 327.259 1424.81 329.109L1424.08 330.449L1418 332.079L1414.9 331.379L1413.4 327.909Z" fill="#3C3D3D"/>
<path d="M1250.82 391.069C1275.78 397.219 1293.99 404.869 1321.68 401.979C1380.64 395.819 1398.06 371.429 1426.72 349.859L1429.14 348.059C1406.91 394.019 1324.69 448.059 1250.82 391.069Z" fill="#656769"/>
<path d="M1183.84 414.009C1192.99 413.629 1207.08 411.739 1212.43 416.179L1210.47 419.459C1202.23 421.039 1196.28 422.249 1188.01 420.479C1182.95 416.879 1184.51 418.909 1183.84 414.009Z" fill="#F3F5F5"/>
<path d="M1179.95 232.879C1178.86 221.759 1188.35 167.339 1215.82 169.209C1228.11 174.599 1222.89 185.999 1226.28 195.419L1226.66 201.169C1229.47 212.659 1233.51 225.389 1232.3 236.839C1228.18 254.059 1227.95 267.879 1229.81 285.119C1230.31 289.759 1232.15 298.549 1232.13 302.719C1233 336.169 1247.23 371.039 1307.83 385.119C1313.79 387.839 1319.44 384.179 1326.18 388.059L1324.83 389.519C1303.17 392.549 1281.9 382.859 1262.36 376.679C1260.06 374.159 1237.57 359.589 1231.53 357.099L1227.47 356.749C1204.39 358.559 1211.43 348.979 1187.37 349.679C1175.79 335.449 1182.62 255.819 1180.12 234.299L1179.95 232.879Z" fill="#101112"/>
<path d="M1227.47 356.749C1224.86 352.969 1220.31 348.129 1221.81 344.439C1228.32 346.549 1230.49 353.149 1231.53 357.099L1227.47 356.749Z" fill="#323333"/>
<path d="M1250.92 155.78C1307.14 99.5496 1401.97 121.89 1423.78 173.53C1424.93 181.23 1427.01 187.95 1423.55 195.39L1420.35 196.51C1405.82 193.93 1405.25 189.38 1394.89 184.21C1383.05 171.7 1374.45 165.05 1358.23 154.26C1328.81 146.2 1325.99 145.8 1293.44 149.35C1285.96 153.73 1272.49 159.69 1263.82 163.84C1256.46 165.97 1246.81 171.27 1240.29 174.53C1245.66 166.85 1249 164.14 1250.92 155.78Z" fill="#F3F5F5"/>
<path d="M1410.99 224.869C1421.98 236.719 1420.78 238.339 1445.6 239.489C1459.79 260.709 1453 282.519 1448.96 304.689C1446.02 311.819 1442.59 319.169 1441.06 326.409C1433.55 328.629 1433.02 328.999 1424.81 329.109C1422.53 327.259 1423.98 328.189 1420.19 326.469L1413.4 327.909C1376.13 355.189 1364.98 410.889 1277.92 386.549C1274.48 385.589 1264.85 378.899 1262.36 376.679C1281.9 382.859 1303.17 392.549 1324.83 389.519L1326.18 388.059C1319.44 384.179 1313.79 387.839 1307.83 385.119C1326.99 383.849 1341.68 383.419 1355.59 374.659C1415.34 337.029 1407.45 269.579 1410.99 224.869Z" fill="url(#paint1_linear_1508_859)"/>
<path d="M1423.78 173.529C1432.36 184.799 1442.14 202.729 1434.54 214.559L1430.53 216.749C1411.27 216.229 1399.76 193.199 1394.89 184.209C1405.25 189.379 1405.82 193.929 1420.35 196.509L1423.55 195.389C1427.01 187.949 1424.93 181.229 1423.78 173.529Z" fill="#CED1D3"/>
<path d="M1226.28 195.419C1232.3 176.519 1231.51 173.049 1250.92 155.779C1249 164.139 1245.66 166.849 1240.29 174.529C1246.81 171.269 1256.46 165.969 1263.82 163.839C1251.78 175.069 1236.87 192.169 1226.66 201.169L1226.28 195.419Z" fill="#CED1D3"/>
<path d="M1188.46 10.6015L1184.97 8.24849L1185.79 6.19551C1200.44 2.15951 1220.07 2.29553 1230.41 10.1295C1228.87 10.6065 1221.5 12.8035 1220.57 13.2365C1223.05 27.5235 1221.24 54.9995 1214.67 68.8225C1207.66 83.5675 1199.08 91.0365 1197.64 107.399C1186.88 90.9165 1182.47 31.1075 1186.64 14.2055L1190.58 12.4465L1188.46 10.6015Z" fill="#CED1D3"/>
<path d="M1188.46 10.6015L1184.97 8.24849L1185.79 6.19551C1200.44 2.15951 1220.07 2.29553 1230.41 10.1295C1228.87 10.6065 1221.5 12.8035 1220.57 13.2365C1212.94 14.0495 1195.36 14.0805 1186.64 14.2055L1190.58 12.4465L1188.46 10.6015Z" fill="#F3F5F5"/>
<path d="M1230.41 10.1289C1228.87 10.6059 1221.5 12.8029 1220.57 13.2359C1212.94 14.0489 1195.36 14.0799 1186.64 14.2049L1190.58 12.4459L1188.46 10.6009C1203.35 11.8659 1215.72 11.2389 1230.41 10.1289Z" fill="#959698"/>
<path d="M650.835 327.719C635.615 303.039 645.335 255.829 650.705 229.869C659.665 186.549 695.925 128.629 782.475 118.629C859.735 109.699 909.875 173.849 922.085 207.049C930.575 233.629 936.415 269.539 928.765 296.199C923.515 339.839 906.935 387.139 846.265 417.669C800.115 440.889 745.665 435.729 708.005 409.519C673.445 385.459 661.635 357.259 650.835 327.719ZM732.675 362.899C747.315 372.019 763.865 381.399 787.325 382.759C806.195 383.869 817.615 376.069 830.825 369.459C882.135 332.169 879.105 292.529 876.815 247.299C874.975 229.719 869.475 214.339 857.155 198.159C832.165 165.349 779.545 149.929 736.125 184.029C707.985 206.119 703.245 225.499 696.185 251.739C694.505 286.189 694.435 334.609 732.675 362.899Z" fill="#656769"/>
<path d="M882.165 221.309C890.975 225.279 902.715 232.009 914.345 230.059C921.545 222.749 906.425 211.109 922.085 207.049C930.575 233.629 936.415 269.539 928.765 296.199C923.515 339.839 906.935 387.139 846.265 417.669C800.115 440.889 745.665 435.729 708.005 409.519C673.445 385.459 661.635 357.259 650.835 327.719C651.585 326.889 655.205 324.389 656.425 323.499C659.235 330.059 666.785 348.139 671.925 353.369C679.745 358.609 688.245 365.029 697.905 368.919C714.045 367.189 712.935 363.039 731.305 370.929L733.375 370.079C733.575 366.899 733.395 366.079 732.675 362.899C747.315 372.019 763.865 381.399 787.325 382.759C806.195 383.869 817.615 376.069 830.825 369.459C882.135 332.169 879.105 292.529 876.815 247.299C878.195 238.119 879.755 230.419 882.165 221.309Z" fill="#B0B1B2"/>
<path d="M882.165 221.309C890.975 225.279 902.715 232.009 914.345 230.059C921.545 222.749 906.425 211.109 922.085 207.049C930.575 233.629 936.415 269.539 928.765 296.199L927.225 294.639C923.005 310.819 917.305 324.269 907.375 339.709C885.705 351.249 861.895 354.899 846.115 366.829L840.475 371.019C835.205 370.959 835.535 370.879 830.825 369.459C882.135 332.169 879.105 292.529 876.815 247.299C878.195 238.119 879.755 230.419 882.165 221.309Z" fill="#101112"/>
<path d="M907.375 339.709C902.775 347.849 899.325 353.589 893.405 361.409C875.175 364.349 867.005 375.109 853.545 382.089C833.685 392.389 786.425 409.509 758.565 404.849C752.655 403.459 746.445 403.169 740.205 401.449C727.475 397.939 719.795 394.229 706.555 391.089C701.145 388.319 696.515 383.159 692.675 379.469L682.735 369.489C678.515 363.899 675.445 359.069 671.925 353.369C679.745 358.609 688.245 365.029 697.905 368.919C714.045 367.189 712.935 363.039 731.305 370.929L733.375 370.079C733.575 366.899 733.395 366.079 732.675 362.899C747.315 372.019 763.865 381.399 787.325 382.759C806.195 383.869 817.615 376.069 830.825 369.459C835.535 370.879 835.205 370.959 840.475 371.019L846.115 366.829C861.895 354.899 885.705 351.249 907.375 339.709Z" fill="#323333"/>
<path d="M671.925 353.369C679.745 358.609 688.245 365.029 697.905 368.919C714.045 367.189 712.935 363.039 731.305 370.929L733.375 370.079C733.575 366.899 733.395 366.079 732.675 362.899C747.315 372.019 763.865 381.399 787.325 382.759C806.195 383.869 817.615 376.069 830.825 369.459C835.535 370.879 835.205 370.959 840.475 371.019L841.285 371.909C832.545 377.309 830.735 378.439 819.775 382.479L817.945 383.139C816.655 385.379 815.805 386.339 811.825 387.489C767.185 400.389 726.865 375.639 682.735 369.489C678.515 363.899 675.445 359.069 671.925 353.369Z" fill="#3C3D3D"/>
<path d="M692.675 379.469C699.085 381.009 701.435 381.619 706.945 384.089C726.435 392.799 747.695 391.509 758.565 404.849C752.655 403.459 746.445 403.169 740.205 401.449C727.475 397.939 719.795 394.229 706.555 391.089C701.145 388.319 696.515 383.159 692.675 379.469Z" fill="#3C3D3D"/>
<path d="M841.285 371.908L843.465 374.008C839.885 379.768 834.295 384.118 825.045 387.368L819.465 387.458L817.945 383.138L819.775 382.478C830.735 378.438 832.545 377.308 841.285 371.908Z" fill="#47494B"/>
<path d="M758.565 404.848C786.425 409.508 833.685 392.388 853.545 382.088C867.005 375.108 875.175 364.348 893.405 361.408C874.015 382.178 848.495 405.438 805.815 412.828C783.995 416.588 760.395 415.138 740.545 408.808C728.555 404.988 713.745 397.618 706.555 391.088C719.795 394.228 727.475 397.938 740.205 401.448C746.445 403.168 752.655 403.458 758.565 404.848Z" fill="#47494B"/>
<path d="M655.455 249.399C665.285 246.839 676.705 244.659 683.485 240.249C684.135 236.869 683.925 236.999 686.565 233.979L689.135 234.289C694.495 241.049 689.685 245.129 696.185 251.739C694.505 286.189 694.435 334.609 732.675 362.899C733.395 366.079 733.575 366.899 733.375 370.079L731.305 370.929C712.935 363.039 714.045 367.189 697.905 368.919C688.245 365.029 679.745 358.609 671.925 353.369C666.785 348.139 659.235 330.059 656.425 323.499C656.635 294.799 634.675 283.989 655.455 249.399Z" fill="#101112"/>
<path d="M699.125 157.308C701.495 155.488 703.945 153.688 706.465 151.918C800.355 85.4073 902.205 144.388 910.705 206.448C911.265 210.508 910.965 212.688 906.325 215.668L901.335 215.478C857.335 200.868 883.015 166.898 800.795 149.308C776.815 150.298 773.365 150.458 752.115 156.638C736.515 164.338 701.705 193.818 693.125 195.188C689.415 192.758 690.175 194.178 690.115 191.008C689.635 183.498 695.775 175.798 693.385 168.228C691.515 162.278 693.665 162.198 699.125 157.308Z" fill="url(#paint2_linear_1508_859)"/>
<path d="M699.125 157.309C704.195 159.289 707.305 159.729 708.125 163.619C709.555 170.319 699.975 187.579 690.115 191.009C689.635 183.499 695.775 175.799 693.385 168.229C691.515 162.279 693.665 162.199 699.125 157.309Z" fill="#CED1D3"/>
<path d="M752.115 156.64L750.135 153.5C754.825 143.81 787.185 148.03 800.795 149.31C776.815 150.3 773.365 150.46 752.115 156.64Z" fill="#CED1D3"/>
<path d="M256.415 307.818C221.935 227.828 7.60502 251.118 12.895 121.328C13.955 95.2471 20.9551 68.9051 45.2251 46.2351C64.8351 27.9171 95.6052 12.3031 133.045 6.86311C161.225 2.76911 190.925 6.02811 215.505 14.5481C257.725 29.1841 290.905 61.8021 303.105 88.1931C303.635 89.3221 303.645 89.4801 303.935 90.4771C296.705 95.5491 270.825 115.698 261.315 117.008C240.895 111.688 235.635 66.8521 175.435 57.0011C161.695 54.7531 145.995 55.0181 132.595 57.8711C106.755 63.3741 90.1351 76.6681 79.9551 90.5211C70.1451 103.868 66.2352 119.168 76.0852 132.898C118.355 191.768 327.555 189.228 317.715 310.428C315.985 331.628 310.905 354.348 296.785 374.178C281.645 395.418 252.215 417.008 214.085 426.058C180.935 433.928 143.925 435.458 110.315 427.458C59.0252 415.258 29.115 382.378 9.875 354.838C5.725 348.898 -3.61489 336.258 1.48511 330.248C2.51511 329.048 4.13505 328.128 5.67505 327.158C17.845 321.098 29.9051 314.438 41.7151 308.108C46.4251 313.358 50.415 319.948 54.145 325.518C87.865 365.388 168.465 393.978 235.295 355.018C236.045 353.858 243.815 346.478 245.745 343.878C255.535 330.678 255.805 321.748 256.415 307.818Z" fill="#959698"/>
<path d="M20.135 131.209C26.125 139.999 41.0052 156.219 53.8552 161.869C101.125 182.679 164.205 204.709 217.685 220.079C287.395 240.119 305.255 257.449 311.945 301.809C314.285 317.289 293.295 331.879 291.145 342.879C294.795 345.139 295.725 344.749 295.495 347.019C294.685 354.959 282.985 367.349 275.545 373.839C258.865 375.919 254.895 386.149 226.265 391.979C207.495 385.949 198.535 397.179 188.755 393.049C193.235 390.539 193.115 391.579 193.815 389.029C187.275 388.099 180.465 389.239 173.675 389.959C167.525 391.079 115.215 393.519 108.975 392.219C96.6551 389.639 57.1051 378.639 42.7551 375.239C38.8951 372.699 34.4952 367.999 31.3552 364.979C18.8852 351.299 13.105 341.959 5.67505 327.159C17.845 321.099 29.9051 314.439 41.7151 308.109C46.4251 313.359 50.415 319.949 54.145 325.519C87.865 365.389 168.465 393.979 235.295 355.019C236.045 353.859 243.815 346.479 245.745 343.879C255.535 330.679 255.805 321.749 256.415 307.819C259.615 293.179 252.245 278.429 235.945 266.879C179.885 226.389 46.265 214.409 24.675 154.729C21.725 146.579 21.145 139.449 20.135 131.209Z" fill="url(#paint3_linear_1508_859)"/>
<path d="M41.7151 308.109C46.4251 313.359 50.415 319.949 54.145 325.519C56.915 342.969 88.1851 365.009 113.515 374.399C90.4951 382.929 51.5752 371.899 31.3552 364.979C18.8852 351.299 13.105 341.959 5.67505 327.159C17.845 321.099 29.9051 314.439 41.7151 308.109Z" fill="#101112"/>
<path d="M173.675 389.959C180.265 385.899 218.025 382.509 228.015 375.979C244.235 365.359 248.705 352.819 269.335 343.759C282.505 345.559 280.475 345.809 291.145 342.879C294.795 345.139 295.725 344.749 295.495 347.019C294.685 354.959 282.985 367.349 275.545 373.839C258.865 375.919 254.895 386.149 226.265 391.979C207.495 385.949 198.535 397.179 188.755 393.049C193.235 390.539 193.115 391.579 193.815 389.029C187.275 388.099 180.465 389.239 173.675 389.959Z" fill="url(#paint4_linear_1508_859)"/>
<path d="M113.515 374.4C88.1851 365.01 56.915 342.97 54.145 325.52C87.865 365.39 168.465 393.98 235.295 355.02C213.205 382.96 158.585 384.83 113.515 374.4Z" fill="#CED1D3"/>
<path d="M226.265 391.98C254.895 386.15 258.865 375.92 275.545 373.84C269.435 379.41 264.135 383.84 256.985 388.99C213.545 420.28 110.045 424.27 64.625 391.96C56.515 386.14 50.1351 381.35 42.7551 375.24C57.1051 378.64 96.6551 389.64 108.975 392.22C115.215 393.52 167.525 391.08 173.675 389.96C180.465 389.24 187.275 388.1 193.815 389.03C193.115 391.58 193.235 390.54 188.755 393.05C198.535 397.18 207.495 385.95 226.265 391.98Z" fill="#656769"/>
<path d="M42.7551 375.238C57.1051 378.638 96.6551 389.638 108.975 392.218C115.215 393.518 167.525 391.078 173.675 389.958C180.465 389.238 187.275 388.098 193.815 389.028C193.115 391.578 193.235 390.538 188.755 393.048C198.535 397.178 207.495 385.948 226.265 391.978C214.765 392.678 201.465 399.508 189.185 401.308C147.855 407.338 104.735 397.108 64.625 391.958C56.515 386.138 50.1351 381.348 42.7551 375.238Z" fill="#3C3D3D"/>
<path d="M90.3851 23.4452C165.165 -14.2778 275.525 28.4792 287.845 79.0862C289.315 85.1122 269.775 95.8453 261.805 100.308C251.575 87.3383 240.235 72.1772 224.035 61.6532C130.925 1.15523 25.5951 82.3843 72.6151 137.058C94.5751 162.598 152.695 173.518 181.885 193.158C172.075 197.918 142.945 186.718 134.125 183.018C106.475 177.568 53.1353 158.428 37.8453 144.448C-0.974724 108.948 32.1151 45.6412 90.3851 23.4452Z" fill="#F3F5F5"/>
<path d="M90.3851 23.4453C79.4451 37.3163 54.1251 50.2423 43.3651 64.8933C31.2051 81.4473 34.8152 96.1684 24.3052 113.308C35.4252 122.278 42.7053 133.918 52.1053 140.658C72.9953 155.668 116.645 166.638 134.125 183.018C106.475 177.568 53.1353 158.428 37.8453 144.448C-0.974724 108.948 32.1151 45.6413 90.3851 23.4453Z" fill="#CED1D3"/>
<path d="M1492.11 311.619C1491.96 311.189 1491.81 310.759 1491.66 310.329C1481 256.759 1486.56 198.529 1542.48 152.959C1577.25 124.629 1631.98 105.349 1686.51 129.669C1741.19 154.059 1755.21 194.359 1763.79 231.089C1764.13 236.969 1766.45 274.829 1768.38 278.319C1765.52 281.999 1764.81 283.689 1759.51 286.439C1745.16 290.659 1573.7 287.709 1541.47 288.429C1545.4 312.319 1551.79 340.399 1575.08 361.109C1595.22 375.509 1614.85 386.179 1650.27 384.209C1681.52 378.019 1698.62 362.809 1707.85 345.479C1711.35 338.899 1707.9 335.849 1716.17 330.879C1725.11 330.669 1757.24 344.919 1763.92 348.759C1765.29 352.619 1765.41 350.709 1762.89 354.669C1750.84 380.719 1704.74 425.329 1653.99 432.119C1593.7 440.189 1546.34 410.669 1524.23 382.649C1509.27 363.679 1502.83 347.639 1495.65 327.279C1493.21 320.829 1492.12 318.399 1492.11 311.619ZM1542.36 243.969C1597.49 245.229 1656.57 245.239 1711.93 245.239C1711.23 227.359 1705.84 210.529 1693.03 193.919C1679.52 176.409 1650.39 155.549 1612.23 166.869C1575.91 177.639 1560.66 201.219 1548.59 222.019C1546.11 229.579 1543.87 236.309 1542.36 243.969Z" fill="#101112"/>
<path d="M1492.11 311.619C1491.96 311.189 1491.81 310.759 1491.66 310.329C1481 256.759 1486.56 198.529 1542.48 152.959C1577.25 124.629 1631.98 105.349 1686.51 129.669C1741.19 154.059 1755.21 194.359 1763.79 231.089C1759.6 228.529 1759.15 227.729 1756.04 225.189C1744.35 215.639 1732.01 220.229 1725.3 207.079L1721.74 206.319C1711.97 213.939 1733.36 248.809 1711.55 249.049C1688.34 249.319 1552.32 251.849 1542.47 248.079C1541.79 245.589 1541.47 246.279 1542.36 243.969C1597.49 245.229 1656.57 245.239 1711.93 245.239C1711.23 227.359 1705.84 210.529 1693.03 193.919C1679.52 176.409 1650.39 155.549 1612.23 166.869C1575.91 177.639 1560.66 201.219 1548.59 222.019C1547.89 217.579 1550.65 207.249 1549.65 205.709L1546.87 204.099C1525.04 210.289 1507.17 234.269 1499.69 246.819C1492.62 258.679 1492 270.809 1492.98 283.159C1493.1 291.149 1493.93 304.119 1492.11 311.619Z" fill="#47494B"/>
<path d="M1530.89 173.01C1531.34 171.17 1531.67 170.55 1533.12 168.87C1591.37 101.53 1706.63 112.92 1739.21 182.53C1741.12 186.59 1745.31 191.57 1741.26 195.79L1737.25 196.25C1723.77 191.99 1705.23 174.88 1695.22 167.47C1653.07 136.25 1621.17 144.24 1574.38 166.27C1555.03 181.54 1531.91 201.13 1511.7 215.48L1505.42 212.23C1511.33 199.57 1517.44 183.5 1530.89 173.01Z" fill="#F3F5F5"/>
<path d="M1530.89 173.01C1531.36 176.57 1527.81 181.53 1527.74 186.55L1529.46 187.03C1544 180.83 1558.94 169.91 1574.38 166.27C1555.03 181.54 1531.91 201.129 1511.7 215.479L1505.42 212.229C1511.33 199.569 1517.44 183.5 1530.89 173.01Z" fill="#CED1D3"/>
<path d="M1624.62 153.79C1644.68 153.14 1656 153.38 1672.79 161.07C1696.21 171.8 1710.68 188.65 1714.45 205.25C1714.16 205.1 1693.47 180.08 1688.02 175.26C1675.88 165.05 1657.05 157.98 1634.65 158.49C1604.91 159.16 1587.62 170.6 1568.69 181.75C1586.47 166.18 1593.89 160.78 1624.62 153.79Z" fill="#CED1D3"/>
<path d="M1505.42 212.229L1511.7 215.479C1509.17 217.569 1501.25 231.529 1498.41 235.499C1499.83 227.599 1502.72 220.019 1505.42 212.229Z" fill="#C3C4C4"/>
<path d="M1495.65 327.279C1495.72 323.999 1494.51 320.869 1497.49 319.119C1507.01 328.889 1504.03 336.709 1517.87 345.169C1532.43 354.079 1552.25 366.579 1568.36 374.349C1587.55 382.019 1600.84 388.119 1624.87 390.259C1634.71 391.139 1644.71 391.169 1654.41 392.339C1653.35 388.859 1650.8 388.779 1650.27 384.209C1681.52 378.019 1698.62 362.809 1707.85 345.479C1711.35 338.899 1707.9 335.849 1716.17 330.879C1725.11 330.669 1757.24 344.919 1763.92 348.759C1765.29 352.619 1765.41 350.709 1762.89 354.669C1750.84 380.719 1704.74 425.329 1653.99 432.119C1593.7 440.189 1546.34 410.669 1524.23 382.649C1509.27 363.679 1502.83 347.639 1495.65 327.279Z" fill="#959698"/>
<path d="M1650.27 384.209C1681.52 378.019 1698.62 362.809 1707.85 345.479C1711.35 338.899 1707.91 335.849 1716.18 330.879C1725.12 330.669 1757.25 344.919 1763.93 348.759C1765.3 352.619 1765.42 350.709 1762.9 354.669L1760.94 352.869C1753.29 354.909 1746.82 356.819 1741.9 360.899C1738.32 363.699 1737.51 364.659 1732.99 367.009L1732.8 369.849C1737.08 369.489 1735.09 369.759 1738.8 369.089C1720.05 404.679 1661.05 416.309 1601.84 405.809C1575.59 401.149 1568.38 396.239 1554.07 384.139C1564.06 387.999 1582.04 396.609 1595.1 394.479C1603.69 393.079 1608.32 394.949 1615.98 396.919L1618.47 395.159C1597.14 385.969 1579.85 391.019 1568.36 374.349C1587.55 382.019 1600.84 388.119 1624.88 390.259C1634.72 391.139 1644.72 391.169 1654.42 392.339C1653.36 388.859 1650.8 388.779 1650.27 384.209Z" fill="#47494B"/>
<path d="M1650.27 384.209C1681.52 378.019 1698.62 362.809 1707.85 345.479C1711.35 338.899 1707.91 335.849 1716.18 330.879C1725.12 330.669 1757.25 344.919 1763.93 348.759C1765.3 352.619 1765.42 350.709 1762.9 354.669L1760.94 352.869C1753.29 354.909 1746.82 356.819 1741.9 360.899C1738.32 363.699 1737.51 364.659 1732.99 367.009C1725.95 368.499 1720.96 372.009 1715.56 375.119L1713.1 376.139C1690.4 385.689 1689.41 392.469 1654.42 392.339C1653.36 388.859 1650.8 388.779 1650.27 384.209Z" fill="url(#paint5_linear_1508_859)"/>
<path d="M1715.56 375.118C1720.86 366.088 1724.4 361.878 1741.9 360.898C1738.32 363.698 1737.51 364.658 1732.99 367.008C1725.95 368.498 1720.96 372.008 1715.56 375.118Z" fill="#101112"/>
<path d="M1618.47 395.158C1656.36 404.668 1696.22 388.688 1724.56 375.988C1697.56 398.648 1684.12 389.578 1648.33 402.988C1635.69 401.288 1627.61 400.408 1615.98 396.918L1618.47 395.158Z" fill="#7A838A"/>
<path d="M1492.98 283.158C1495.97 287.858 1493.84 290.288 1495.4 294.568C1498.43 302.898 1502.57 313.768 1508.01 321.718C1525.32 328.188 1534.28 331.638 1546.58 341.738C1554.39 348.158 1562.13 363.008 1572.59 367.438C1576.61 364.318 1572.97 364.978 1575.08 361.108C1595.22 375.508 1614.85 386.178 1650.27 384.208C1650.8 388.778 1653.36 388.858 1654.42 392.338C1644.72 391.168 1634.72 391.138 1624.88 390.258C1600.84 388.118 1587.55 382.018 1568.36 374.348C1552.25 366.578 1532.44 354.078 1517.88 345.168C1504.03 336.708 1507.01 328.888 1497.49 319.118C1494.51 320.868 1495.73 323.998 1495.66 327.278C1493.22 320.828 1492.12 318.398 1492.11 311.618C1493.93 304.118 1493.1 291.148 1492.98 283.158Z" fill="#3C3D3D"/>
<path d="M1759.51 286.439C1724.52 288.349 1681.29 286.589 1645.41 286.989C1628.46 287.169 1546.96 287.939 1538.04 284.539L1538.52 282.729C1543.15 280.039 1553.49 278.109 1560.08 278.069C1626.8 277.649 1694.03 279.629 1760.66 277.159C1765.96 276.959 1763.39 276.899 1768.39 278.319C1765.53 281.999 1764.81 283.689 1759.51 286.439Z" fill="#959698"/>
<path d="M411.775 169.63C439.835 141.32 490.495 94.8817 560.745 130.55C594.785 147.84 601.075 190.12 600.395 214.94C604.515 236.26 602.315 285.33 602.335 309.11L601.955 384.24C601.835 395.22 602.125 406.16 601.895 417.17C601.715 425.94 587.355 426.12 575.405 426.7C567.575 427.08 562.495 426.61 555.395 424.82C548.575 419.49 550.815 356.9 551.985 346.6C550.255 340.65 550.835 316.04 550.825 308.89L550.555 235.48C550.185 219.44 548.995 208.59 542.665 193.01C523.325 151.24 469.265 160.01 438.245 190.94C432.585 196.59 429.115 201.53 425.055 207.58C421.125 216.06 415.935 226.13 413.255 234.62C409.215 253.73 410.205 274.23 410.145 293.59L409.645 382.54C409.435 393.68 409.815 410.25 407.975 420.81C402.125 431.64 371.895 427.88 362.295 420.29C357.265 410.74 357.705 303.87 359.895 289.08C358.905 279.24 358.025 130.4 362.685 128.81C425.525 107.35 411.455 150.28 411.775 169.63Z" fill="#7A838A"/>
<path d="M550.555 235.478L553.055 238.738C556.325 227.818 549.315 193.488 557.215 187.158C558.295 187.598 560.565 188.648 561.655 189.138L565.625 185.488C571.225 186.388 579.975 193.298 588.295 196.668C594.665 214.118 598.395 219.178 599.535 237.328C599.195 228.908 598.915 223.278 600.395 214.938C604.515 236.258 602.315 285.328 602.335 309.108L601.955 384.238C601.835 395.218 602.125 406.158 601.895 417.168C601.715 425.938 587.355 426.118 575.405 426.698C567.575 427.078 562.495 426.608 555.395 424.818C548.575 419.488 550.815 356.898 551.985 346.598C550.255 340.648 550.835 316.038 550.825 308.888L550.555 235.478Z" fill="url(#paint6_linear_1508_859)"/>
<path d="M600.395 214.939C604.515 236.259 602.315 285.329 602.335 309.109L601.955 384.239C601.835 395.219 602.125 406.159 601.895 417.169C601.715 425.939 587.355 426.119 575.405 426.699C567.575 427.079 562.495 426.609 555.395 424.819C548.575 419.489 550.815 356.899 551.985 346.599C553.385 351.879 554.065 359.509 561.505 362.879L565.115 362.349C573.995 361.009 579.445 358.149 588.595 359.089C593.225 360.779 593.025 361.109 596.035 363.809C603.695 356.869 599.115 251.219 599.535 237.329C599.195 228.909 598.915 223.279 600.395 214.939Z" fill="#47494B"/>
<path d="M561.505 362.878L565.115 362.348C573.995 361.008 579.445 358.148 588.595 359.088C593.225 360.778 593.025 361.108 596.035 363.808C593.955 368.528 596.995 396.178 593.035 406.448C588.785 409.038 568.435 409.318 559.855 409.838C558.875 404.268 559.255 367.008 561.505 362.878Z" fill="#3C3D3D"/>
<path d="M566.255 413.898C575.765 413.388 591.545 412.758 596.085 418.718C591.665 421.728 593.825 420.408 585.865 421.988C576.255 422.198 561.425 422.308 556.115 417.078C560.375 414.048 558.115 415.398 566.255 413.898Z" fill="#F3F5F5"/>
<path d="M359.895 289.079C367.035 273.139 352.535 211.159 375.475 202.609C380.565 203.209 379.755 203.479 383.825 206.979L384.895 207.919C414.045 208.069 411.415 221.449 413.255 234.619C409.215 253.729 410.205 274.229 410.145 293.589L409.645 382.539C409.435 393.679 409.815 410.249 407.975 420.809C402.125 431.639 371.895 427.879 362.295 420.289C357.265 410.739 357.705 303.869 359.895 289.079Z" fill="url(#paint7_linear_1508_859)"/>
<path d="M364.465 415.279C362.345 399.179 369.495 381.479 369.465 363.989L371.075 363.259C379.615 359.289 397.975 350.669 400.175 344.949C405.845 348.679 401.755 409.419 407.975 420.809C402.125 431.639 371.895 427.879 362.295 420.289L364.315 418.179L364.465 415.279Z" fill="#3C3D3D"/>
<path d="M364.465 415.279C375.305 413.569 385.145 411.929 395.875 413.909L400.015 416.119C399.765 420.639 396.025 422.369 387.425 422.279C379.175 422.209 371.135 420.789 364.315 418.179L364.465 415.279Z" fill="#F3F5F5"/>
<path d="M425.055 207.579L421.905 206.559C411.195 193.439 478.655 143.649 514.015 153.219C532.865 158.319 566.635 188.459 542.665 193.009C523.325 151.239 469.265 160.009 438.245 190.939C432.585 196.589 429.115 201.529 425.055 207.579Z" fill="#959698"/>
<path d="M384.115 147.469C393.885 150.409 399.185 153.439 401.575 159.689C403.655 165.149 407.705 176.269 402.915 181.039L397.685 180.729C377.135 174.359 364.025 166.319 370.085 152.569C374.565 153.499 372.365 153.369 376.655 153.149L384.115 147.469Z" fill="#959698"/>
<path d="M512.885 126.828C528.215 127.188 556.375 127.418 560.655 137.328L556.745 140.108C545.475 138.368 516.615 134.728 509.865 130.268L512.885 126.828Z" fill="#CED1D3"/>
<path d="M378.685 127.07C389.495 126.89 397.815 126.21 406.705 129.65L406.915 131.8C402.405 134.98 396.505 135.61 389.485 137.04C380.015 138.09 363.615 138.25 365.195 130.62C370.765 127.72 371.415 127.97 378.685 127.07Z" fill="#F3F5F5"/>
<path d="M1032.81 167.579C1054.15 143.719 1077.72 112.599 1136.96 119.109C1150.51 120.599 1131.29 165.329 1123.66 170.819C1113.52 173.629 1100.5 173.549 1087.86 174.889C1018.83 214.979 1033.21 244.469 1028.78 295.099C1025.98 327.139 1036 397.909 1021.81 424.899C1001.04 427.469 975.695 432.239 975.255 414.589C975.185 387.369 973.835 355.599 975.785 328.749C974.535 305.749 972.845 137.199 980.545 129.409C992.105 125.289 1015 125.519 1028.29 126.829C1036.27 132.259 1033.07 158.949 1032.81 167.579Z" fill="#656769"/>
<path d="M1015.98 214.898C1018.01 227.908 1028.44 227.558 1028.13 244.448C1027.72 267.218 1023.22 289.178 1021.31 311.798C1020.3 326.348 1019.84 340.898 1019.95 355.458C1018.77 351.378 1019.22 351.208 1014.49 347.878C998.305 344.388 996.675 352.049 985.205 351.599C978.855 340.919 986.635 326.489 980.705 314.849C978.175 289.419 977.885 257.658 983.175 232.238C984.945 223.708 1003.46 218.648 1015.98 214.898Z" fill="url(#paint8_linear_1508_859)"/>
<path d="M980.705 314.85C986.635 326.49 978.855 340.92 985.205 351.6C996.675 352.05 998.305 344.39 1014.49 347.88C1019.22 351.21 1018.77 351.38 1019.95 355.46C1020.28 365.18 1021.98 396.75 1019.43 404.78C1007.68 407.59 999.475 405.09 989.055 407.94C994.865 412.18 995.415 409.68 1002.62 413.21C990.985 413.66 987.855 413.269 977.655 416.359L975.255 414.59C975.185 387.37 973.835 355.6 975.785 328.75C977.345 334.85 977.865 349.22 978.495 355.87L978.505 353.97L979.345 353.79C980.725 341.97 980.435 326.95 980.705 314.85Z" fill="url(#paint9_linear_1508_859)"/>
<path d="M1002.61 413.209C1012.46 413.899 1012.19 412.959 1018.31 415.969C1015.56 424.999 988.725 422.519 977.655 416.359C987.855 413.269 990.985 413.659 1002.61 413.209Z" fill="#F3F5F5"/>
<path d="M1046.61 163.34C1058.17 146.71 1089.64 120.449 1125.61 122.269L1128.91 123.58C1129.33 130.43 1118.5 145.43 1113.86 152.7C1081 157.81 1074.93 162.86 1055.38 178.56C1041.7 192.42 1031.53 205.31 1021.27 219.97C1024.25 200.62 1030.57 180.72 1046.61 163.34Z" fill="#F3F5F5"/>
<path d="M995.525 137.239L1022.39 137.199C1022.95 153.469 1028.21 170.029 1005.66 182.089C998.445 185.019 1002.29 184.299 994.015 184.759C978.535 178.589 981.995 147.989 988.305 138.589C989.165 137.299 993.045 137.459 995.525 137.239Z" fill="#CED1D3"/>
<defs>
<linearGradient id="paint0_linear_1508_859" x1="1323.32" y1="312.526" x2="1267.79" y2="423.008" gradientUnits="userSpaceOnUse">
<stop stop-color="#353535"/>
<stop offset="1" stop-color="#58585A"/>
</linearGradient>
<linearGradient id="paint1_linear_1508_859" x1="1476.61" y1="272.749" x2="1278.61" y2="343.745" gradientUnits="userSpaceOnUse">
<stop stop-color="#020404"/>
<stop offset="1" stop-color="#2B2B2E"/>
</linearGradient>
<linearGradient id="paint2_linear_1508_859" x1="697.98" y1="200.098" x2="882.898" y2="159.642" gradientUnits="userSpaceOnUse">
<stop stop-color="#B8D5EB"/>
<stop offset="1" stop-color="white"/>
</linearGradient>
<linearGradient id="paint3_linear_1508_859" x1="273.431" y1="231.1" x2="-10.7718" y2="287.962" gradientUnits="userSpaceOnUse">
<stop/>
<stop offset="1" stop-color="#353434"/>
</linearGradient>
<linearGradient id="paint4_linear_1508_859" x1="201.248" y1="365.405" x2="284.971" y2="371.405" gradientUnits="userSpaceOnUse">
<stop stop-color="#292929"/>
<stop offset="1" stop-color="#4F4F4F"/>
</linearGradient>
<linearGradient id="paint5_linear_1508_859" x1="1656.72" y1="364.259" x2="1753.97" y2="364.872" gradientUnits="userSpaceOnUse">
<stop stop-color="#0C0D0E"/>
<stop offset="1" stop-color="#363636"/>
</linearGradient>
<linearGradient id="paint6_linear_1508_859" x1="489.65" y1="232.269" x2="654.297" y2="320.533" gradientUnits="userSpaceOnUse">
<stop stop-color="#050505"/>
<stop offset="1" stop-color="#262627"/>
</linearGradient>
<linearGradient id="paint7_linear_1508_859" x1="309.541" y1="235.803" x2="443.223" y2="324.966" gradientUnits="userSpaceOnUse">
<stop stop-color="#040405"/>
<stop offset="1" stop-color="#2A292A"/>
</linearGradient>
<linearGradient id="paint8_linear_1508_859" x1="958.752" y1="231.057" x2="1043.46" y2="339.162" gradientUnits="userSpaceOnUse">
<stop stop-color="#010101"/>
<stop offset="1" stop-color="#28292B"/>
</linearGradient>
<linearGradient id="paint9_linear_1508_859" x1="968.046" y1="363.968" x2="1029.55" y2="394.92" gradientUnits="userSpaceOnUse">
<stop stop-color="#393A3C"/>
<stop offset="1" stop-color="#636262"/>
</linearGradient>
</defs>
</svg>
